<svg width="41" height="40" viewBox="0 0 41 40" fill="none" xmlns="http://www.w3.org/2000/svg">
<path fill-rule="evenodd" clip-rule="evenodd" d="M39.705 16.0077H20.4845C20.4845 18.0066 20.4845 22.0044 20.4722 24.0032H31.61C31.1832 26.0021 29.67 28.8005 27.5319 30.2097C27.5298 30.2077 27.5278 30.2217 27.5237 30.2197C24.6811 32.0967 20.9297 32.5224 18.1442 31.9627C13.7781 31.0952 10.3229 27.929 8.91994 23.9073C8.9281 23.9013 8.93423 23.8453 8.94036 23.8413C8.06224 21.3467 8.06224 18.0066 8.94036 16.0077H8.93831C10.0697 12.3338 13.6291 8.98169 18.0013 8.0642C21.5178 7.31862 25.4856 8.12617 28.4038 10.8566C28.7918 10.4768 33.7746 5.61158 34.1483 5.21581C24.1787 -3.81311 8.2154 -0.636901 2.24219 11.0225H2.24015C2.24015 11.0225 2.24219 11.0225 2.22993 11.0445C-0.72502 16.7713 -0.602492 23.5195 2.25036 28.9724C2.24219 28.9784 2.23606 28.9824 2.22993 28.9884C4.81526 34.0056 9.52032 37.8534 15.1893 39.3186C21.2115 40.8977 28.8756 39.8183 34.0095 35.1749C34.0115 35.1769 34.0136 35.1789 34.0156 35.1809C38.3653 31.2631 41.0732 24.5889 39.705 16.0077Z" fill="#FD6C19"/>
</svg>
